<mxfile host="app.diagrams.net" modified="2021-01-12T08:47:31.087Z" agent="5.0 (Windows NT 10.0; WOW64) AppleWebKit/537.36 (KHTML, like Gecko) Chrome/78.0.3904.108 Safari/537.36" etag="TM3O00bayGgUMqujgOuD" version="14.1.9" type="github">
  <diagram id="kgpKYQtTHZ0yAKxKKP6v" name="Page-1">
    <mxGraphModel dx="2272" dy="702" grid="1" gridSize="10" guides="1" tooltips="1" connect="1" arrows="1" fold="1" page="1" pageScale="1" pageWidth="850" pageHeight="1100" background="none" math="0" shadow="0">
      <root>
        <mxCell id="0" />
        <mxCell id="1" parent="0" />
        <mxCell id="td5Zy-zeOnTorkV1JDV5-1" value="" style="rounded=0;whiteSpace=wrap;html=1;sketch=0;" vertex="1" parent="1">
          <mxGeometry x="-410" y="520" width="740" height="500" as="geometry" />
        </mxCell>
        <mxCell id="td5Zy-zeOnTorkV1JDV5-7" value="" style="endArrow=none;html=1;fontColor=#143642;exitX=-0.002;exitY=0.133;exitDx=0;exitDy=0;exitPerimeter=0;entryX=0.995;entryY=0.137;entryDx=0;entryDy=0;entryPerimeter=0;fillColor=#e51400;shadow=0;opacity=80;strokeColor=none;" edge="1" parent="1" source="td5Zy-zeOnTorkV1JDV5-21" target="td5Zy-zeOnTorkV1JDV5-1">
          <mxGeometry width="50" height="50" relative="1" as="geometry">
            <mxPoint x="80" y="790" as="sourcePoint" />
            <mxPoint x="130" y="740" as="targetPoint" />
          </mxGeometry>
        </mxCell>
        <mxCell id="td5Zy-zeOnTorkV1JDV5-11" value="电话接入" style="rounded=0;whiteSpace=wrap;html=1;sketch=0;" vertex="1" parent="1">
          <mxGeometry x="-390" y="560" width="100" height="30" as="geometry" />
        </mxCell>
        <mxCell id="td5Zy-zeOnTorkV1JDV5-12" value="IM接入" style="rounded=0;whiteSpace=wrap;html=1;sketch=0;" vertex="1" parent="1">
          <mxGeometry x="-270" y="560" width="100" height="30" as="geometry" />
        </mxCell>
        <mxCell id="td5Zy-zeOnTorkV1JDV5-14" value="网络语音接入" style="rounded=0;whiteSpace=wrap;html=1;sketch=0;" vertex="1" parent="1">
          <mxGeometry x="-150" y="560" width="100" height="30" as="geometry" />
        </mxCell>
        <mxCell id="td5Zy-zeOnTorkV1JDV5-18" value="Web接入" style="rounded=0;whiteSpace=wrap;html=1;sketch=0;" vertex="1" parent="1">
          <mxGeometry x="-30" y="560" width="100" height="30" as="geometry" />
        </mxCell>
        <mxCell id="td5Zy-zeOnTorkV1JDV5-19" value="图像接入" style="rounded=0;whiteSpace=wrap;html=1;sketch=0;" vertex="1" parent="1">
          <mxGeometry x="90" y="560" width="100" height="30" as="geometry" />
        </mxCell>
        <mxCell id="td5Zy-zeOnTorkV1JDV5-21" value="视频接入" style="rounded=0;whiteSpace=wrap;html=1;sketch=0;" vertex="1" parent="1">
          <mxGeometry x="210" y="560" width="100" height="30" as="geometry" />
        </mxCell>
        <mxCell id="td5Zy-zeOnTorkV1JDV5-22" value="" style="endArrow=none;html=1;fontColor=#143642;exitX=-0.002;exitY=0.133;exitDx=0;exitDy=0;exitPerimeter=0;entryX=0.995;entryY=0.137;entryDx=0;entryDy=0;entryPerimeter=0;fillColor=#e51400;shadow=0;opacity=80;strokeColor=none;" edge="1" parent="1" source="td5Zy-zeOnTorkV1JDV5-19" target="td5Zy-zeOnTorkV1JDV5-21">
          <mxGeometry width="50" height="50" relative="1" as="geometry">
            <mxPoint x="89.80000000000018" y="563.99" as="sourcePoint" />
            <mxPoint x="316.4000000000001" y="588.5" as="targetPoint" />
          </mxGeometry>
        </mxCell>
        <mxCell id="td5Zy-zeOnTorkV1JDV5-25" value="多渠道接入中心" style="rounded=0;whiteSpace=wrap;html=1;sketch=0;" vertex="1" parent="1">
          <mxGeometry x="-100" y="520" width="120" height="30" as="geometry" />
        </mxCell>
      </root>
    </mxGraphModel>
  </diagram>
</mxfile>
